<svg xmlns="http://www.w3.org/2000/svg" viewBox="0 0 128 128">
  <defs>
    <linearGradient id="grad" x1="0" y1="0" x2="1" y2="1">
      <stop offset="0%" stop-color="#3B82F6"/>
      <stop offset="100%" stop-color="#1D4ED8"/>
    </linearGradient>
    <filter id="shadow">
      <feDropShadow dx="0" dy="4" stdDeviation="4" flood-opacity="0.25"/>
    </filter>
  </defs>
  
  <rect x="8" y="8" width="112" height="112" rx="28" fill="url(#grad)" filter="url(#shadow)"/>
  
  <path fill="white" d="M64 36 L52 24 H32 C25.37 24 20 29.37 20 36 V92 C20 98.63 25.37 104 32 104 H96 C102.63 104 108 98.63 108 92 V48 C108 41.37 102.63 36 96 36 H64 Z"/>
  
  <path fill="white" fill-opacity="0.8" d="M20 52 H108 V92 C108 98.63 102.63 104 96 104 H32 C25.37 104 20 98.63 20 92 V52 Z"/>
</svg>